<mxfile host="app.diagrams.net" modified="2023-09-18T16:47:27.249Z" agent="Mozilla/5.0 (Windows NT 10.0; Win64; x64) AppleWebKit/537.36 (KHTML, like Gecko) Chrome/116.0.0.0 Safari/537.36" etag="EvlMQ7Fs4uRpofuGQm0V" version="21.7.5" type="github">
  <diagram name="Page-1" id="03018318-947c-dd8e-b7a3-06fadd420f32">
    <mxGraphModel dx="2074" dy="1118" grid="1" gridSize="10" guides="1" tooltips="1" connect="1" arrows="1" fold="1" page="1" pageScale="1" pageWidth="1100" pageHeight="850" background="#ffffff" math="0" shadow="0">
      <root>
        <mxCell id="0" />
        <mxCell id="1" parent="0" />
        <mxCell id="JttWats6QqlOsFAtU_4d-17" value="" style="whiteSpace=wrap;html=1;rounded=0;shadow=0;labelBackgroundColor=none;strokeColor=#000000;strokeWidth=1;fillColor=none;fontFamily=Verdana;fontSize=12;fontColor=#000000;align=center;comic=1;" vertex="1" parent="1">
          <mxGeometry x="10" y="2970" width="1060" height="810" as="geometry" />
        </mxCell>
        <mxCell id="JttWats6QqlOsFAtU_4d-19" value="Search" style="strokeWidth=1;shadow=0;dashed=0;align=center;html=1;shape=mxgraph.mockup.forms.searchBox;strokeColor=#999999;mainText=;strokeColor2=#008cff;fontColor=#666666;fontSize=17;align=left;spacingLeft=3;rounded=0;labelBackgroundColor=none;comic=1;" vertex="1" parent="1">
          <mxGeometry x="830" y="3031" width="220" height="30" as="geometry" />
        </mxCell>
        <mxCell id="JttWats6QqlOsFAtU_4d-20" value="выход" style="text;html=1;points=[];align=left;verticalAlign=top;spacingTop=-4;fontSize=14;fontFamily=Verdana" vertex="1" parent="1">
          <mxGeometry x="890" y="2986" width="140" height="20" as="geometry" />
        </mxCell>
        <mxCell id="JttWats6QqlOsFAtU_4d-22" value="" style="line;strokeWidth=1;html=1;rounded=0;shadow=0;labelBackgroundColor=none;fillColor=none;fontFamily=Verdana;fontSize=14;fontColor=#000000;align=center;comic=1;" vertex="1" parent="1">
          <mxGeometry x="10" y="3076" width="1060" height="10" as="geometry" />
        </mxCell>
        <mxCell id="JttWats6QqlOsFAtU_4d-23" value="" style="whiteSpace=wrap;html=1;rounded=0;shadow=0;labelBackgroundColor=none;strokeWidth=1;fillColor=none;fontFamily=Verdana;fontSize=12;align=center;comic=1;" vertex="1" parent="1">
          <mxGeometry x="20" y="3096" width="1040" height="50" as="geometry" />
        </mxCell>
        <mxCell id="JttWats6QqlOsFAtU_4d-24" value="Главная" style="text;html=1;points=[];align=center;verticalAlign=top;spacingTop=-4;fontSize=14;fontFamily=Verdana" vertex="1" parent="1">
          <mxGeometry x="85" y="3111" width="125" height="20" as="geometry" />
        </mxCell>
        <mxCell id="JttWats6QqlOsFAtU_4d-25" value="Категории" style="text;html=1;points=[];align=center;verticalAlign=top;spacingTop=-4;fontSize=14;fontFamily=Verdana" vertex="1" parent="1">
          <mxGeometry x="300" y="3111" width="160" height="20" as="geometry" />
        </mxCell>
        <mxCell id="JttWats6QqlOsFAtU_4d-26" value="Корзина" style="text;html=1;points=[];align=left;verticalAlign=top;spacingTop=-4;fontSize=14;fontFamily=Verdana" vertex="1" parent="1">
          <mxGeometry x="590" y="3111" width="63" height="20" as="geometry" />
        </mxCell>
        <mxCell id="JttWats6QqlOsFAtU_4d-27" value="Профиль" style="text;html=1;points=[];align=left;verticalAlign=top;spacingTop=-4;fontSize=14;fontFamily=Verdana" vertex="1" parent="1">
          <mxGeometry x="880" y="3111" width="60" height="20" as="geometry" />
        </mxCell>
        <mxCell id="JttWats6QqlOsFAtU_4d-31" value="" style="rounded=0;whiteSpace=wrap;html=1;" vertex="1" parent="1">
          <mxGeometry x="25" y="3180" width="1030" height="470" as="geometry" />
        </mxCell>
        <mxCell id="JttWats6QqlOsFAtU_4d-33" value="" style="whiteSpace=wrap;html=1;rounded=0;shadow=0;labelBackgroundColor=none;strokeColor=#000000;strokeWidth=1;fillColor=none;fontFamily=Verdana;fontSize=12;fontColor=#000000;align=center;comic=1;" vertex="1" parent="1">
          <mxGeometry x="10" y="3860" width="1060" height="810" as="geometry" />
        </mxCell>
        <mxCell id="JttWats6QqlOsFAtU_4d-34" value="Название/логотип" style="whiteSpace=wrap;html=1;rounded=0;shadow=0;labelBackgroundColor=none;strokeWidth=1;fontFamily=Verdana;fontSize=28;align=center;comic=1;" vertex="1" parent="1">
          <mxGeometry x="30" y="3876" width="210" height="60" as="geometry" />
        </mxCell>
        <mxCell id="JttWats6QqlOsFAtU_4d-35" value="Search" style="strokeWidth=1;shadow=0;dashed=0;align=center;html=1;shape=mxgraph.mockup.forms.searchBox;strokeColor=#999999;mainText=;strokeColor2=#008cff;fontColor=#666666;fontSize=17;align=left;spacingLeft=3;rounded=0;labelBackgroundColor=none;comic=1;" vertex="1" parent="1">
          <mxGeometry x="830" y="3921" width="220" height="30" as="geometry" />
        </mxCell>
        <mxCell id="JttWats6QqlOsFAtU_4d-36" value="выход" style="text;html=1;points=[];align=left;verticalAlign=top;spacingTop=-4;fontSize=14;fontFamily=Verdana" vertex="1" parent="1">
          <mxGeometry x="890" y="3876" width="140" height="20" as="geometry" />
        </mxCell>
        <mxCell id="JttWats6QqlOsFAtU_4d-37" value="" style="whiteSpace=wrap;html=1;rounded=0;shadow=0;labelBackgroundColor=none;strokeWidth=1;fillColor=none;fontFamily=Verdana;fontSize=12;align=center;comic=1;" vertex="1" parent="1">
          <mxGeometry x="20" y="4056" width="230" height="460" as="geometry" />
        </mxCell>
        <mxCell id="JttWats6QqlOsFAtU_4d-38" value="" style="line;strokeWidth=1;html=1;rounded=0;shadow=0;labelBackgroundColor=none;fillColor=none;fontFamily=Verdana;fontSize=14;fontColor=#000000;align=center;comic=1;" vertex="1" parent="1">
          <mxGeometry x="10" y="3966" width="1060" height="10" as="geometry" />
        </mxCell>
        <mxCell id="JttWats6QqlOsFAtU_4d-39" value="" style="whiteSpace=wrap;html=1;rounded=0;shadow=0;labelBackgroundColor=none;strokeWidth=1;fillColor=none;fontFamily=Verdana;fontSize=12;align=center;comic=1;" vertex="1" parent="1">
          <mxGeometry x="20" y="3986" width="1040" height="50" as="geometry" />
        </mxCell>
        <mxCell id="JttWats6QqlOsFAtU_4d-40" value="Главная" style="text;html=1;points=[];align=center;verticalAlign=top;spacingTop=-4;fontSize=14;fontFamily=Verdana" vertex="1" parent="1">
          <mxGeometry x="85" y="4001" width="125" height="20" as="geometry" />
        </mxCell>
        <mxCell id="JttWats6QqlOsFAtU_4d-41" value="Категории" style="text;html=1;points=[];align=center;verticalAlign=top;spacingTop=-4;fontSize=14;fontFamily=Verdana" vertex="1" parent="1">
          <mxGeometry x="300" y="4001" width="160" height="20" as="geometry" />
        </mxCell>
        <mxCell id="JttWats6QqlOsFAtU_4d-42" value="Корзина" style="text;html=1;points=[];align=left;verticalAlign=top;spacingTop=-4;fontSize=14;fontFamily=Verdana" vertex="1" parent="1">
          <mxGeometry x="590" y="4001" width="63" height="20" as="geometry" />
        </mxCell>
        <mxCell id="JttWats6QqlOsFAtU_4d-43" value="Профиль" style="text;html=1;points=[];align=left;verticalAlign=top;spacingTop=-4;fontSize=14;fontFamily=Verdana" vertex="1" parent="1">
          <mxGeometry x="880" y="4001" width="60" height="20" as="geometry" />
        </mxCell>
        <mxCell id="JttWats6QqlOsFAtU_4d-44" value="&lt;div style=&quot;text-align: justify&quot;&gt;&lt;br&gt;&lt;/div&gt;" style="whiteSpace=wrap;html=1;rounded=0;shadow=0;labelBackgroundColor=none;strokeWidth=1;fillColor=none;fontFamily=Verdana;fontSize=12;align=center;verticalAlign=top;spacing=10;comic=1;" vertex="1" parent="1">
          <mxGeometry x="20" y="4536" width="1030" height="120" as="geometry" />
        </mxCell>
        <mxCell id="JttWats6QqlOsFAtU_4d-45" value="контакты..." style="text;html=1;points=[];align=left;verticalAlign=top;spacingTop=-4;fontSize=14;fontFamily=Verdana" vertex="1" parent="1">
          <mxGeometry x="40" y="4546" width="350" height="50" as="geometry" />
        </mxCell>
        <mxCell id="JttWats6QqlOsFAtU_4d-46" value="Фирмы" style="text;html=1;strokeColor=none;fillColor=none;align=center;verticalAlign=middle;whiteSpace=wrap;rounded=0;" vertex="1" parent="1">
          <mxGeometry x="30" y="4076" width="200" height="40" as="geometry" />
        </mxCell>
        <mxCell id="JttWats6QqlOsFAtU_4d-47" value="" style="rounded=0;whiteSpace=wrap;html=1;" vertex="1" parent="1">
          <mxGeometry x="290" y="4056" width="770" height="470" as="geometry" />
        </mxCell>
        <mxCell id="JttWats6QqlOsFAtU_4d-48" value="&lt;font style=&quot;font-size: 15px;&quot;&gt;Популярные модели&lt;/font&gt;" style="text;html=1;strokeColor=none;fillColor=none;align=center;verticalAlign=middle;whiteSpace=wrap;rounded=0;" vertex="1" parent="1">
          <mxGeometry x="310" y="4066" width="230" height="80" as="geometry" />
        </mxCell>
        <mxCell id="JttWats6QqlOsFAtU_4d-62" value="" style="verticalLabelPosition=bottom;verticalAlign=top;html=1;shape=mxgraph.basic.rect;fillColor2=none;strokeWidth=1;size=20;indent=5;fillColor=#f5f5f5;fontColor=#333333;strokeColor=#666666;" vertex="1" parent="1">
          <mxGeometry x="30" y="3001" width="280" height="60" as="geometry" />
        </mxCell>
        <mxCell id="JttWats6QqlOsFAtU_4d-63" value="&lt;h1&gt;&lt;font style=&quot;font-size: 29px;&quot; face=&quot;Georgia&quot;&gt;BubnaShop&lt;/font&gt;&lt;/h1&gt;" style="text;html=1;strokeColor=none;fillColor=none;align=center;verticalAlign=middle;whiteSpace=wrap;rounded=0;" vertex="1" parent="1">
          <mxGeometry x="119" y="3016" width="102" height="30" as="geometry" />
        </mxCell>
        <mxCell id="JttWats6QqlOsFAtU_4d-67" value="" style="endArrow=none;html=1;rounded=0;" edge="1" parent="1">
          <mxGeometry relative="1" as="geometry">
            <mxPoint x="840" y="3140" as="sourcePoint" />
            <mxPoint x="1000" y="3140" as="targetPoint" />
          </mxGeometry>
        </mxCell>
        <mxCell id="JttWats6QqlOsFAtU_4d-68" value="&lt;div style=&quot;text-align: justify&quot;&gt;&lt;br&gt;&lt;/div&gt;" style="whiteSpace=wrap;html=1;rounded=0;shadow=0;labelBackgroundColor=none;strokeWidth=1;fillColor=none;fontFamily=Verdana;fontSize=12;align=center;verticalAlign=top;spacing=10;comic=1;" vertex="1" parent="1">
          <mxGeometry x="30" y="3650" width="1030" height="120" as="geometry" />
        </mxCell>
        <mxCell id="JttWats6QqlOsFAtU_4d-69" value="" style="rounded=0;whiteSpace=wrap;html=1;" vertex="1" parent="1">
          <mxGeometry x="750" y="3690" width="120" height="40" as="geometry" />
        </mxCell>
        <mxCell id="JttWats6QqlOsFAtU_4d-70" value="Link2" style="rounded=0;whiteSpace=wrap;html=1;" vertex="1" parent="1">
          <mxGeometry x="920" y="3690" width="120" height="40" as="geometry" />
        </mxCell>
        <mxCell id="JttWats6QqlOsFAtU_4d-71" value="Link1" style="text;html=1;strokeColor=none;fillColor=none;align=center;verticalAlign=middle;whiteSpace=wrap;rounded=0;" vertex="1" parent="1">
          <mxGeometry x="780" y="3695" width="60" height="30" as="geometry" />
        </mxCell>
        <mxCell id="JttWats6QqlOsFAtU_4d-72" value="" style="verticalLabelPosition=bottom;shadow=0;dashed=0;align=center;html=1;verticalAlign=top;strokeWidth=1;shape=mxgraph.mockup.containers.userMale;strokeColor=#666666;strokeColor2=#008cff;" vertex="1" parent="1">
          <mxGeometry x="90" y="3245" width="250" height="260" as="geometry" />
        </mxCell>
        <mxCell id="JttWats6QqlOsFAtU_4d-73" value="" style="rounded=0;whiteSpace=wrap;html=1;" vertex="1" parent="1">
          <mxGeometry x="90" y="3540" width="250" height="60" as="geometry" />
        </mxCell>
        <mxCell id="JttWats6QqlOsFAtU_4d-74" value="&lt;font style=&quot;font-size: 16px;&quot;&gt;Bubna&lt;/font&gt;" style="text;html=1;strokeColor=none;fillColor=none;align=center;verticalAlign=middle;whiteSpace=wrap;rounded=0;" vertex="1" parent="1">
          <mxGeometry x="180" y="3555" width="60" height="30" as="geometry" />
        </mxCell>
        <mxCell id="JttWats6QqlOsFAtU_4d-100" value="" style="strokeWidth=1;shadow=0;dashed=0;align=center;html=1;shape=mxgraph.mockup.containers.browserWindow;rSize=0;strokeColor2=#008cff;strokeColor3=#c4c4c4;mainText=,;recursiveResize=0;" vertex="1" parent="1">
          <mxGeometry x="20" y="40" width="1020" height="760" as="geometry" />
        </mxCell>
        <mxCell id="JttWats6QqlOsFAtU_4d-101" value="Main" style="strokeWidth=1;shadow=0;dashed=0;align=center;html=1;shape=mxgraph.mockup.containers.anchor;fontSize=17;fontColor=#666666;align=left;whiteSpace=wrap;" vertex="1" parent="JttWats6QqlOsFAtU_4d-100">
          <mxGeometry x="60" y="12" width="110" height="26" as="geometry" />
        </mxCell>
        <mxCell id="JttWats6QqlOsFAtU_4d-102" value="https://www.bubnashop.ru" style="strokeWidth=1;shadow=0;dashed=0;align=center;html=1;shape=mxgraph.mockup.containers.anchor;rSize=0;fontSize=17;fontColor=#666666;align=left;" vertex="1" parent="JttWats6QqlOsFAtU_4d-100">
          <mxGeometry x="130" y="60" width="250" height="26" as="geometry" />
        </mxCell>
        <mxCell id="JttWats6QqlOsFAtU_4d-105" value="" style="rounded=0;whiteSpace=wrap;html=1;fillColor=#000000;strokeColor=#3700CC;fontColor=#ffffff;" vertex="1" parent="JttWats6QqlOsFAtU_4d-100">
          <mxGeometry x="20" y="120" width="970" height="60" as="geometry" />
        </mxCell>
        <mxCell id="JttWats6QqlOsFAtU_4d-108" value="&lt;font color=&quot;#ffffff&quot;&gt;BubnaShop&lt;/font&gt;" style="text;html=1;strokeColor=none;fillColor=none;align=center;verticalAlign=middle;whiteSpace=wrap;rounded=0;fontSize=20;fontFamily=Georgia;fontStyle=1" vertex="1" parent="JttWats6QqlOsFAtU_4d-100">
          <mxGeometry x="475" y="135" width="60" height="30" as="geometry" />
        </mxCell>
        <mxCell id="JttWats6QqlOsFAtU_4d-109" value="" style="rounded=0;whiteSpace=wrap;html=1;fillColor=#000000;" vertex="1" parent="JttWats6QqlOsFAtU_4d-100">
          <mxGeometry x="20" y="200" width="970" height="430" as="geometry" />
        </mxCell>
        <mxCell id="JttWats6QqlOsFAtU_4d-110" value="" style="rounded=0;whiteSpace=wrap;html=1;fillColor=#000000;" vertex="1" parent="JttWats6QqlOsFAtU_4d-100">
          <mxGeometry x="20" y="650" width="970" height="90" as="geometry" />
        </mxCell>
        <mxCell id="JttWats6QqlOsFAtU_4d-124" value="&lt;font color=&quot;#ffffff&quot; style=&quot;font-size: 16px;&quot;&gt;Main&lt;/font&gt;" style="text;html=1;strokeColor=none;fillColor=none;align=center;verticalAlign=middle;whiteSpace=wrap;rounded=0;" vertex="1" parent="JttWats6QqlOsFAtU_4d-100">
          <mxGeometry x="40" y="135" width="60" height="30" as="geometry" />
        </mxCell>
        <mxCell id="JttWats6QqlOsFAtU_4d-125" value="" style="endArrow=none;html=1;rounded=0;strokeColor=#FFFFFF;strokeWidth=3;" edge="1" parent="JttWats6QqlOsFAtU_4d-100">
          <mxGeometry relative="1" as="geometry">
            <mxPoint x="35" y="165" as="sourcePoint" />
            <mxPoint x="105" y="165" as="targetPoint" />
          </mxGeometry>
        </mxCell>
        <mxCell id="JttWats6QqlOsFAtU_4d-127" value="&lt;font color=&quot;#ffffff&quot;&gt;&lt;span style=&quot;font-size: 16px;&quot;&gt;Category&lt;/span&gt;&lt;/font&gt;" style="text;html=1;strokeColor=none;fillColor=none;align=center;verticalAlign=middle;whiteSpace=wrap;rounded=0;" vertex="1" parent="JttWats6QqlOsFAtU_4d-100">
          <mxGeometry x="120" y="132.5" width="60" height="35" as="geometry" />
        </mxCell>
        <mxCell id="JttWats6QqlOsFAtU_4d-148" value="&lt;font color=&quot;#ffffff&quot;&gt;&lt;span style=&quot;font-size: 16px;&quot;&gt;Cart&lt;/span&gt;&lt;/font&gt;" style="text;html=1;strokeColor=none;fillColor=none;align=center;verticalAlign=middle;whiteSpace=wrap;rounded=0;" vertex="1" parent="JttWats6QqlOsFAtU_4d-100">
          <mxGeometry x="780" y="132.5" width="60" height="35" as="geometry" />
        </mxCell>
        <mxCell id="JttWats6QqlOsFAtU_4d-149" value="&lt;font color=&quot;#ffffff&quot;&gt;&lt;span style=&quot;font-size: 16px;&quot;&gt;Profile&lt;/span&gt;&lt;/font&gt;" style="text;html=1;strokeColor=none;fillColor=none;align=center;verticalAlign=middle;whiteSpace=wrap;rounded=0;" vertex="1" parent="JttWats6QqlOsFAtU_4d-100">
          <mxGeometry x="870" y="132.5" width="60" height="35" as="geometry" />
        </mxCell>
        <mxCell id="JttWats6QqlOsFAtU_4d-150" value="&lt;font color=&quot;#ffffff&quot;&gt;&lt;span style=&quot;font-size: 16px;&quot;&gt;News&lt;/span&gt;&lt;/font&gt;" style="text;html=1;strokeColor=none;fillColor=none;align=center;verticalAlign=middle;whiteSpace=wrap;rounded=0;" vertex="1" parent="JttWats6QqlOsFAtU_4d-100">
          <mxGeometry x="200" y="132.5" width="60" height="35" as="geometry" />
        </mxCell>
        <mxCell id="JttWats6QqlOsFAtU_4d-151" value="" style="rounded=0;whiteSpace=wrap;html=1;fillColor=#000000;strokeColor=#FFFFFF;strokeWidth=4;" vertex="1" parent="JttWats6QqlOsFAtU_4d-100">
          <mxGeometry x="30" y="210" width="230" height="410" as="geometry" />
        </mxCell>
        <mxCell id="JttWats6QqlOsFAtU_4d-152" value="" style="rounded=0;whiteSpace=wrap;html=1;fillColor=#000000;strokeColor=#FFFFFF;strokeWidth=4;" vertex="1" parent="JttWats6QqlOsFAtU_4d-100">
          <mxGeometry x="290" y="210" width="680" height="410" as="geometry" />
        </mxCell>
        <mxCell id="JttWats6QqlOsFAtU_4d-169" value="&lt;font color=&quot;#ffffff&quot;&gt;&lt;span style=&quot;font-size: 16px;&quot;&gt;Abibas&lt;/span&gt;&lt;/font&gt;" style="text;html=1;strokeColor=none;fillColor=none;align=center;verticalAlign=middle;whiteSpace=wrap;rounded=0;" vertex="1" parent="JttWats6QqlOsFAtU_4d-100">
          <mxGeometry x="115" y="230" width="60" height="35" as="geometry" />
        </mxCell>
        <mxCell id="JttWats6QqlOsFAtU_4d-170" value="&lt;font color=&quot;#ffffff&quot;&gt;&lt;span style=&quot;font-size: 16px;&quot;&gt;Nike&lt;/span&gt;&lt;/font&gt;" style="text;html=1;strokeColor=none;fillColor=none;align=center;verticalAlign=middle;whiteSpace=wrap;rounded=0;" vertex="1" parent="JttWats6QqlOsFAtU_4d-100">
          <mxGeometry x="115" y="280" width="60" height="35" as="geometry" />
        </mxCell>
        <mxCell id="JttWats6QqlOsFAtU_4d-171" value="&lt;font color=&quot;#ffffff&quot;&gt;&lt;span style=&quot;font-size: 16px;&quot;&gt;Reebok&lt;/span&gt;&lt;/font&gt;" style="text;html=1;strokeColor=none;fillColor=none;align=center;verticalAlign=middle;whiteSpace=wrap;rounded=0;" vertex="1" parent="JttWats6QqlOsFAtU_4d-100">
          <mxGeometry x="115" y="330" width="60" height="35" as="geometry" />
        </mxCell>
        <mxCell id="JttWats6QqlOsFAtU_4d-172" value="" style="rounded=0;whiteSpace=wrap;html=1;fillColor=#e51400;fontColor=#ffffff;strokeColor=#FFFFFF;strokeWidth=4;" vertex="1" parent="JttWats6QqlOsFAtU_4d-100">
          <mxGeometry x="310" y="230" width="310" height="180" as="geometry" />
        </mxCell>
        <mxCell id="JttWats6QqlOsFAtU_4d-173" value="" style="rounded=0;whiteSpace=wrap;html=1;fillColor=#e51400;fontColor=#ffffff;strokeColor=#FFFFFF;strokeWidth=4;" vertex="1" parent="JttWats6QqlOsFAtU_4d-100">
          <mxGeometry x="640" y="230" width="310" height="180" as="geometry" />
        </mxCell>
        <mxCell id="JttWats6QqlOsFAtU_4d-174" value="" style="rounded=0;whiteSpace=wrap;html=1;fillColor=#e51400;fontColor=#ffffff;strokeColor=#FFFFFF;strokeWidth=4;" vertex="1" parent="JttWats6QqlOsFAtU_4d-100">
          <mxGeometry x="310" y="430" width="640" height="180" as="geometry" />
        </mxCell>
        <mxCell id="JttWats6QqlOsFAtU_4d-176" value="&lt;font color=&quot;#ffffff&quot; style=&quot;font-size: 15px;&quot; face=&quot;Georgia&quot;&gt;Advertising&lt;/font&gt;" style="text;html=1;strokeColor=none;fillColor=none;align=center;verticalAlign=middle;whiteSpace=wrap;rounded=0;" vertex="1" parent="JttWats6QqlOsFAtU_4d-100">
          <mxGeometry x="435" y="300" width="60" height="30" as="geometry" />
        </mxCell>
        <mxCell id="JttWats6QqlOsFAtU_4d-177" value="&lt;font color=&quot;#ffffff&quot; style=&quot;font-size: 15px;&quot; face=&quot;Georgia&quot;&gt;Advertising&lt;/font&gt;" style="text;html=1;strokeColor=none;fillColor=none;align=center;verticalAlign=middle;whiteSpace=wrap;rounded=0;" vertex="1" parent="JttWats6QqlOsFAtU_4d-100">
          <mxGeometry x="780" y="300" width="60" height="30" as="geometry" />
        </mxCell>
        <mxCell id="JttWats6QqlOsFAtU_4d-178" value="&lt;font color=&quot;#ffffff&quot; style=&quot;font-size: 15px;&quot; face=&quot;Georgia&quot;&gt;Most popular&lt;/font&gt;" style="text;html=1;strokeColor=none;fillColor=none;align=center;verticalAlign=middle;whiteSpace=wrap;rounded=0;" vertex="1" parent="JttWats6QqlOsFAtU_4d-100">
          <mxGeometry x="565" y="505" width="130" height="30" as="geometry" />
        </mxCell>
        <mxCell id="JttWats6QqlOsFAtU_4d-203" value="&lt;font color=&quot;#ffffff&quot;&gt;&lt;span style=&quot;font-size: 16px;&quot;&gt;About us&lt;/span&gt;&lt;/font&gt;" style="text;html=1;strokeColor=none;fillColor=none;align=center;verticalAlign=middle;whiteSpace=wrap;rounded=0;" vertex="1" parent="JttWats6QqlOsFAtU_4d-100">
          <mxGeometry x="870" y="677.5" width="70" height="35" as="geometry" />
        </mxCell>
        <mxCell id="JttWats6QqlOsFAtU_4d-204" value="&lt;font color=&quot;#ffffff&quot;&gt;&lt;span style=&quot;font-size: 16px;&quot;&gt;Write us&lt;/span&gt;&lt;/font&gt;" style="text;html=1;strokeColor=none;fillColor=none;align=center;verticalAlign=middle;whiteSpace=wrap;rounded=0;" vertex="1" parent="JttWats6QqlOsFAtU_4d-100">
          <mxGeometry x="780" y="677.5" width="70" height="35" as="geometry" />
        </mxCell>
        <mxCell id="JttWats6QqlOsFAtU_4d-257" value="&lt;font color=&quot;#ffffff&quot;&gt;&lt;span style=&quot;font-size: 16px;&quot;&gt;Sponsors&lt;/span&gt;&lt;/font&gt;" style="text;html=1;strokeColor=none;fillColor=none;align=center;verticalAlign=middle;whiteSpace=wrap;rounded=0;" vertex="1" parent="JttWats6QqlOsFAtU_4d-100">
          <mxGeometry x="690" y="677.5" width="70" height="35" as="geometry" />
        </mxCell>
        <mxCell id="JttWats6QqlOsFAtU_4d-285" value="" style="strokeWidth=1;shadow=0;dashed=0;align=center;html=1;shape=mxgraph.mockup.containers.browserWindow;rSize=0;strokeColor2=#008cff;strokeColor3=#c4c4c4;mainText=,;recursiveResize=0;" vertex="1" parent="1">
          <mxGeometry x="20" y="850" width="1020" height="760" as="geometry" />
        </mxCell>
        <mxCell id="JttWats6QqlOsFAtU_4d-286" value="Profile" style="strokeWidth=1;shadow=0;dashed=0;align=center;html=1;shape=mxgraph.mockup.containers.anchor;fontSize=17;fontColor=#666666;align=left;whiteSpace=wrap;" vertex="1" parent="JttWats6QqlOsFAtU_4d-285">
          <mxGeometry x="60" y="12" width="110" height="26" as="geometry" />
        </mxCell>
        <mxCell id="JttWats6QqlOsFAtU_4d-287" value="https://www.bubnashop.ru/profile" style="strokeWidth=1;shadow=0;dashed=0;align=center;html=1;shape=mxgraph.mockup.containers.anchor;rSize=0;fontSize=17;fontColor=#666666;align=left;" vertex="1" parent="JttWats6QqlOsFAtU_4d-285">
          <mxGeometry x="130" y="60" width="250" height="26" as="geometry" />
        </mxCell>
        <mxCell id="JttWats6QqlOsFAtU_4d-288" value="" style="rounded=0;whiteSpace=wrap;html=1;fillColor=#000000;strokeColor=#3700CC;fontColor=#ffffff;" vertex="1" parent="JttWats6QqlOsFAtU_4d-285">
          <mxGeometry x="20" y="120" width="970" height="60" as="geometry" />
        </mxCell>
        <mxCell id="JttWats6QqlOsFAtU_4d-289" value="&lt;font color=&quot;#ffffff&quot;&gt;BubnaShop&lt;/font&gt;" style="text;html=1;strokeColor=none;fillColor=none;align=center;verticalAlign=middle;whiteSpace=wrap;rounded=0;fontSize=20;fontFamily=Georgia;fontStyle=1" vertex="1" parent="JttWats6QqlOsFAtU_4d-285">
          <mxGeometry x="475" y="135" width="60" height="30" as="geometry" />
        </mxCell>
        <mxCell id="JttWats6QqlOsFAtU_4d-290" value="" style="rounded=0;whiteSpace=wrap;html=1;fillColor=#000000;" vertex="1" parent="JttWats6QqlOsFAtU_4d-285">
          <mxGeometry x="20" y="200" width="970" height="430" as="geometry" />
        </mxCell>
        <mxCell id="JttWats6QqlOsFAtU_4d-291" value="" style="rounded=0;whiteSpace=wrap;html=1;fillColor=#000000;" vertex="1" parent="JttWats6QqlOsFAtU_4d-285">
          <mxGeometry x="20" y="650" width="970" height="90" as="geometry" />
        </mxCell>
        <mxCell id="JttWats6QqlOsFAtU_4d-292" value="&lt;font color=&quot;#ffffff&quot; style=&quot;font-size: 16px;&quot;&gt;Main&lt;/font&gt;" style="text;html=1;strokeColor=none;fillColor=none;align=center;verticalAlign=middle;whiteSpace=wrap;rounded=0;" vertex="1" parent="JttWats6QqlOsFAtU_4d-285">
          <mxGeometry x="40" y="135" width="60" height="30" as="geometry" />
        </mxCell>
        <mxCell id="JttWats6QqlOsFAtU_4d-293" value="" style="endArrow=none;html=1;rounded=0;strokeColor=#FFFFFF;strokeWidth=3;" edge="1" parent="JttWats6QqlOsFAtU_4d-285">
          <mxGeometry relative="1" as="geometry">
            <mxPoint x="865" y="167.5" as="sourcePoint" />
            <mxPoint x="935" y="167.5" as="targetPoint" />
          </mxGeometry>
        </mxCell>
        <mxCell id="JttWats6QqlOsFAtU_4d-294" value="&lt;font color=&quot;#ffffff&quot;&gt;&lt;span style=&quot;font-size: 16px;&quot;&gt;Category&lt;/span&gt;&lt;/font&gt;" style="text;html=1;strokeColor=none;fillColor=none;align=center;verticalAlign=middle;whiteSpace=wrap;rounded=0;" vertex="1" parent="JttWats6QqlOsFAtU_4d-285">
          <mxGeometry x="120" y="132.5" width="60" height="35" as="geometry" />
        </mxCell>
        <mxCell id="JttWats6QqlOsFAtU_4d-295" value="&lt;font color=&quot;#ffffff&quot;&gt;&lt;span style=&quot;font-size: 16px;&quot;&gt;Cart&lt;/span&gt;&lt;/font&gt;" style="text;html=1;strokeColor=none;fillColor=none;align=center;verticalAlign=middle;whiteSpace=wrap;rounded=0;" vertex="1" parent="JttWats6QqlOsFAtU_4d-285">
          <mxGeometry x="780" y="132.5" width="60" height="35" as="geometry" />
        </mxCell>
        <mxCell id="JttWats6QqlOsFAtU_4d-296" value="&lt;font color=&quot;#ffffff&quot;&gt;&lt;span style=&quot;font-size: 16px;&quot;&gt;Profile&lt;/span&gt;&lt;/font&gt;" style="text;html=1;strokeColor=none;fillColor=none;align=center;verticalAlign=middle;whiteSpace=wrap;rounded=0;" vertex="1" parent="JttWats6QqlOsFAtU_4d-285">
          <mxGeometry x="870" y="132.5" width="60" height="35" as="geometry" />
        </mxCell>
        <mxCell id="JttWats6QqlOsFAtU_4d-297" value="&lt;font color=&quot;#ffffff&quot;&gt;&lt;span style=&quot;font-size: 16px;&quot;&gt;News&lt;/span&gt;&lt;/font&gt;" style="text;html=1;strokeColor=none;fillColor=none;align=center;verticalAlign=middle;whiteSpace=wrap;rounded=0;" vertex="1" parent="JttWats6QqlOsFAtU_4d-285">
          <mxGeometry x="200" y="132.5" width="60" height="35" as="geometry" />
        </mxCell>
        <mxCell id="JttWats6QqlOsFAtU_4d-309" value="&lt;font color=&quot;#ffffff&quot;&gt;&lt;span style=&quot;font-size: 16px;&quot;&gt;About us&lt;/span&gt;&lt;/font&gt;" style="text;html=1;strokeColor=none;fillColor=none;align=center;verticalAlign=middle;whiteSpace=wrap;rounded=0;" vertex="1" parent="JttWats6QqlOsFAtU_4d-285">
          <mxGeometry x="870" y="677.5" width="70" height="35" as="geometry" />
        </mxCell>
        <mxCell id="JttWats6QqlOsFAtU_4d-310" value="&lt;font color=&quot;#ffffff&quot;&gt;&lt;span style=&quot;font-size: 16px;&quot;&gt;Write us&lt;/span&gt;&lt;/font&gt;" style="text;html=1;strokeColor=none;fillColor=none;align=center;verticalAlign=middle;whiteSpace=wrap;rounded=0;" vertex="1" parent="JttWats6QqlOsFAtU_4d-285">
          <mxGeometry x="780" y="677.5" width="70" height="35" as="geometry" />
        </mxCell>
        <mxCell id="JttWats6QqlOsFAtU_4d-311" value="&lt;font color=&quot;#ffffff&quot;&gt;&lt;span style=&quot;font-size: 16px;&quot;&gt;Sponsors&lt;/span&gt;&lt;/font&gt;" style="text;html=1;strokeColor=none;fillColor=none;align=center;verticalAlign=middle;whiteSpace=wrap;rounded=0;" vertex="1" parent="JttWats6QqlOsFAtU_4d-285">
          <mxGeometry x="690" y="677.5" width="70" height="35" as="geometry" />
        </mxCell>
      </root>
    </mxGraphModel>
  </diagram>
</mxfile>
